<svg width="31" height="30" viewBox="0 0 31 30" fill="none" xmlns="http://www.w3.org/2000/svg">
  <g clip-path="url(#clip0_211_765)">
    <path
      fill-rule="evenodd"
      clip-rule="evenodd"
      d="M15.5124 0.5C7.21094 0.5 0.5 7.03506 0.5 15.1198C0.5 21.5824 4.79993 27.0528 10.7651 28.989C11.5109 29.1346 11.784 28.6744 11.784 28.2874C11.784 27.9485 11.7595 26.7867 11.7595 25.5762C7.58337 26.4478 6.71374 23.8334 6.71374 23.8334C6.04261 22.1391 5.04822 21.7036 5.04822 21.7036C3.68139 20.808 5.14778 20.808 5.14778 20.808C6.66396 20.9048 7.45953 22.3087 7.45953 22.3087C8.80148 24.5354 10.9639 23.9062 11.8338 23.5189C11.958 22.5748 12.3559 21.9213 12.7784 21.5583C9.44771 21.2194 5.94336 19.9608 5.94336 14.3451C5.94336 12.7476 6.5395 11.4406 7.48412 10.4241C7.33508 10.0611 6.81299 8.56011 7.63346 6.55117C7.63346 6.55117 8.90104 6.16382 11.7592 8.05186C12.9828 7.73184 14.2448 7.56904 15.5124 7.56767C16.78 7.56767 18.0721 7.73728 19.2654 8.05186C22.1238 6.16382 23.3914 6.55117 23.3914 6.55117C24.2118 8.56011 23.6894 10.0611 23.5404 10.4241C24.5099 11.4406 25.0815 12.7476 25.0815 14.3451C25.0815 19.9608 21.5771 21.1951 18.2215 21.5583C18.7685 22.0182 19.2405 22.8894 19.2405 24.2692C19.2405 26.2297 19.2159 27.8032 19.2159 28.2871C19.2159 28.6744 19.4894 29.1346 20.2349 28.9893C26.2 27.0526 30.4999 21.5824 30.4999 15.1198C30.5245 7.03506 23.789 0.5 15.5124 0.5Z"
      fill="currentColor"
    />
  </g>
  <defs>
    <clipPath id="clip0_211_765">
      <rect width="30" height="29" fill="currentColor" transform="translate(0.5 0.5)" />
    </clipPath>
  </defs>
</svg>