<svg width="30" height="30" viewBox="0 0 30 30" fill="none" xmlns="http://www.w3.org/2000/svg">
<g clip-path="url(#clip0_211_767)">
<path d="M14.9998 12.3636V17.9791H22.8034C22.4607 19.785 21.4324 21.3141 19.8902 22.3423L24.5961 25.9937C27.3379 23.4628 28.9197 19.7455 28.9197 15.3296C28.9197 14.3015 28.8275 13.3127 28.656 12.3637L14.9998 12.3636Z" fill="#4285F4"/>
<path d="M6.87356 17.7599L5.81221 18.5723L2.05533 21.4987C4.44123 26.2309 9.33132 29.5 14.9995 29.5C18.9144 29.5 22.1966 28.2082 24.5957 25.9937L19.8899 22.3423C18.598 23.2123 16.9503 23.7396 14.9995 23.7396C11.2295 23.7396 8.02639 21.1956 6.87949 17.7683L6.87356 17.7599Z" fill="#34A853"/>
<path d="M2.05534 8.50134C1.06676 10.4522 0.5 12.6536 0.5 14.9999C0.5 17.3462 1.06676 19.5476 2.05534 21.4984C2.05534 21.5115 6.87997 17.7548 6.87997 17.7548C6.58997 16.8848 6.41856 15.9621 6.41856 14.9997C6.41856 14.0373 6.58997 13.1147 6.87997 12.2447L2.05534 8.50134Z" fill="#FBBC05"/>
<path d="M14.9998 6.27363C17.1352 6.27363 19.0334 7.01179 20.5493 8.43545L24.7015 4.28323C22.1838 1.93691 18.9148 0.5 14.9998 0.5C9.33162 0.5 4.44123 3.7559 2.05533 8.50137L6.87981 12.245C8.02656 8.8177 11.2298 6.27363 14.9998 6.27363Z" fill="#EA4335"/>
</g>
<defs>
<clipPath id="clip0_211_767">
<rect width="29" height="29" fill="white" transform="translate(0.5 0.5)"/>
</clipPath>
</defs>
</svg>
