<svg width="30" height="30" viewBox="0 0 30 30" fill="none" xmlns="http://www.w3.org/2000/svg">
<g clip-path="url(#clip0_211_766)">
<path d="M15 29.5C23.0081 29.5 29.5 23.0081 29.5 15C29.5 6.99187 23.0081 0.5 15 0.5C6.99187 0.5 0.5 6.99187 0.5 15C0.5 23.0081 6.99187 29.5 15 29.5Z" fill="url(#paint0_linear_211_766)"/>
<path fill-rule="evenodd" clip-rule="evenodd" d="M7.06351 14.8469C11.2906 13.0053 14.1092 11.7912 15.5196 11.2045C19.5464 9.52966 20.3831 9.23871 20.9285 9.22911C21.0484 9.22699 21.3166 9.25672 21.4904 9.39769C21.6371 9.51672 21.6774 9.67751 21.6967 9.79037C21.7161 9.90322 21.7401 10.1603 21.721 10.3612C21.5028 12.654 20.5586 18.218 20.0782 20.7859C19.8749 21.8725 19.4747 22.2369 19.0873 22.2725C18.2452 22.35 17.6058 21.716 16.7903 21.1814C15.5141 20.3449 14.7931 19.8241 13.5543 19.0078C12.1227 18.0644 13.0508 17.5459 13.8667 16.6985C14.0802 16.4767 17.7902 13.1021 17.862 12.796C17.871 12.7577 17.8793 12.615 17.7946 12.5397C17.7098 12.4643 17.5846 12.4901 17.4943 12.5106C17.3664 12.5396 15.3276 13.8871 11.3782 16.5531C10.7995 16.9505 10.2753 17.1441 9.8057 17.134C9.28797 17.1228 8.29208 16.8412 7.55173 16.6006C6.64367 16.3054 5.92196 16.1493 5.9848 15.648C6.01754 15.3869 6.37711 15.1199 7.06351 14.8469Z" fill="white"/>
</g>
<defs>
<linearGradient id="paint0_linear_211_766" x1="15" y1="0.5" x2="15" y2="29.2849" gradientUnits="userSpaceOnUse">
<stop stop-color="#2AABEE"/>
<stop offset="1" stop-color="#229ED9"/>
</linearGradient>
<clipPath id="clip0_211_766">
<rect width="29" height="29" fill="white" transform="translate(0.5 0.5)"/>
</clipPath>
</defs>
</svg>
