<svg xmlns="http://www.w3.org/2000/svg" version="1.1" xmlns:xlink="http://www.w3.org/1999/xlink" width="1000" height="1000"><g clip-path="url(#SvgjsClipPath1114)"><rect width="1000" height="1000" fill="#0d0f12"></rect><g transform="matrix(20.833333333333332,0,0,20.833333333333332,0,0)"><svg xmlns="http://www.w3.org/2000/svg" version="1.1" xmlns:xlink="http://www.w3.org/1999/xlink" width="48" height="48"><svg width="48" height="48" viewBox="0 0 48 48" fill="none" xmlns="http://www.w3.org/2000/svg">
<rect width="48" height="48" fill="#0D0F12"></rect>
<path d="M17.45 19.12L18.26 20.41L11.2 24.74L18.26 29.11L17.36 30.34L9.76 25.59V23.87L17.45 19.12Z" fill="#C778DD"></path>
<path d="M20.41 33.06L19.05 32.46L27.61 14.81L28.95 15.47L20.41 33.06Z" fill="#C778DD"></path>
<path d="M30.57 19.12L38.26 23.87V25.59L30.67 30.34L29.76 29.1L36.82 24.74L29.76 20.39L30.57 19.12Z" fill="#C778DD"></path>
</svg></svg></g></g><defs><clipPath id="SvgjsClipPath1114"><rect width="1000" height="1000" x="0" y="0" rx="150" ry="150"></rect></clipPath></defs></svg>